<?xml version="1.0" encoding="UTF-8"?>
<!DOCTYPE svg PUBLIC "-//W3C//DTD SVG 1.1//EN" "http://www.w3.org/Graphics/SVG/1.1/DTD/svg11.dtd">
<svg xmlns="http://www.w3.org/2000/svg" version="1.1" width="387px" height="140px" style="shape-rendering:geometricPrecision; text-rendering:geometricPrecision; image-rendering:optimizeQuality; fill-rule:evenodd; clip-rule:evenodd" xmlns:xlink="http://www.w3.org/1999/xlink">
<g><path style="opacity:1" fill="#11059a" d="M 198.5,-0.5 C 199.167,-0.5 199.833,-0.5 200.5,-0.5C 193.078,8.65474 185.412,17.6547 177.5,26.5C 175.757,28.0383 173.757,29.0383 171.5,29.5C 179.817,18.8517 188.817,8.85173 198.5,-0.5 Z"/></g>
<g><path style="opacity:1" fill="#0a0166" d="M 220.5,22.5 C 219.632,28.4716 218.799,34.4716 218,40.5C 216.961,39.2899 215.794,38.2899 214.5,37.5C 213.167,36.1667 211.833,34.8333 210.5,33.5C 209.445,30.9272 209.278,28.2605 210,25.5C 213.293,23.7915 216.793,22.7915 220.5,22.5 Z"/></g>
<g><path style="opacity:1" fill="#363098" d="M 200.5,-0.5 C 201.167,-0.5 201.833,-0.5 202.5,-0.5C 206.424,5.67979 210.09,12.0131 213.5,18.5C 212.99,20.0879 211.99,21.2545 210.5,22C 205.84,23.9947 201.506,26.4947 197.5,29.5C 201.977,30.4373 206.31,31.7706 210.5,33.5C 211.833,34.8333 213.167,36.1667 214.5,37.5C 210.854,37.542 207.188,37.542 203.5,37.5C 198.204,36.4905 192.871,36.3239 187.5,37C 184.826,37.6701 182.493,38.8368 180.5,40.5C 170.75,46.0056 166.917,54.3389 169,65.5C 171.167,73 176,77.8333 183.5,80C 192.661,81.5567 201.328,80.2233 209.5,76C 211.618,74.9509 213.284,73.4509 214.5,71.5C 215.87,71.1435 216.87,70.3102 217.5,69C 215.863,67.172 214.197,65.3386 212.5,63.5C 211.739,58.8069 212.906,58.4735 216,62.5C 217.824,61.2513 217.657,60.0847 215.5,59C 217.92,59.3716 219.92,60.7049 221.5,63C 220.346,63.9138 220.513,64.7471 222,65.5C 222.615,63.8839 223.615,62.5505 225,61.5C 225.986,62.1712 227.153,62.1712 228.5,61.5C 227.19,72.6844 225.524,83.6844 223.5,94.5C 222.721,92.0728 221.554,92.0728 220,94.5C 219.116,92.575 218.616,90.575 218.5,88.5C 218.816,84.4754 218.983,80.4754 219,76.5C 212.048,81.8908 204.215,85.5575 195.5,87.5C 194.614,88.325 194.281,89.325 194.5,90.5C 194.825,97.6866 194.491,104.687 193.5,111.5C 177.817,102.883 161.984,94.5499 146,86.5C 145.503,88.8098 145.337,91.1432 145.5,93.5C 145.666,98.1785 145.499,102.845 145,107.5C 144.329,108.252 143.496,108.586 142.5,108.5C 135.493,109.101 128.493,109.767 121.5,110.5C 121.11,107.161 120.61,103.827 120,100.5C 118.27,102.402 116.437,104.069 114.5,105.5C 113.833,105.833 113.167,106.167 112.5,106.5C 91.1185,113.229 78.6185,105.562 75,83.5C 73.3853,84.3862 71.8853,85.3862 70.5,86.5C 67.9296,85.516 67.9296,84.3493 70.5,83C 69.9341,82.0053 69.2674,81.172 68.5,80.5C 71.8617,76.8075 75.1951,73.1408 78.5,69.5C 78.3505,70.552 78.5172,71.552 79,72.5C 79.9138,71.3463 80.7471,71.513 81.5,73C 78.2242,75.7884 76.2242,78.955 75.5,82.5C 76.8834,79.9244 77.7167,80.2577 78,83.5C 79.7398,82.2842 80.7398,80.6175 81,78.5C 81.3988,78.7284 81.5654,79.0618 81.5,79.5C 81.5273,98.0328 90.5273,105.199 108.5,101C 114.322,99.0101 118.322,95.1768 120.5,89.5C 121.857,88.4097 122.857,87.0764 123.5,85.5C 123.369,86.2389 123.536,86.9056 124,87.5C 125.074,86.3816 126.24,85.3816 127.5,84.5C 127.167,83.8333 126.833,83.1667 126.5,82.5C 127.977,79.5664 128.977,76.5664 129.5,73.5C 130.771,79.4332 129.937,85.0999 127,90.5C 126.501,94.8206 126.334,99.1539 126.5,103.5C 129.881,103.54 133.214,103.207 136.5,102.5C 137.496,102.586 138.329,102.252 139,101.5C 139.171,93.3228 139.671,85.3228 140.5,77.5C 154.961,84.2302 169.294,91.2302 183.5,98.5C 184.641,99.339 185.974,100.006 187.5,100.5C 188.492,96.2172 188.826,91.8839 188.5,87.5C 177.908,86.5427 169.908,81.5427 164.5,72.5C 158.114,70.3844 152.114,67.7177 146.5,64.5C 152.139,58.5263 157.805,52.5263 163.5,46.5C 164.627,45.8783 165.627,45.045 166.5,44C 162.167,39.6667 157.833,35.3333 153.5,31C 151.588,30.7207 150.254,31.5541 149.5,33.5C 145.532,39.1434 141.532,44.81 137.5,50.5C 136.671,43.9906 136.005,37.324 135.5,30.5C 129.027,31.7015 122.693,33.3681 116.5,35.5C 116.629,29.7779 118.462,28.7779 122,32.5C 124,31.1667 124,29.8333 122,28.5C 121.23,29.5981 120.397,29.5981 119.5,28.5C 126.658,25.6664 133.992,22.9997 141.5,20.5C 142.176,21.6016 142.842,22.6016 143.5,23.5C 142.431,26.408 142.264,29.408 143,32.5C 144.925,28.3133 147.092,24.3133 149.5,20.5C 155.961,25.7908 162.295,31.2908 168.5,37C 175.039,37.4842 175.872,35.6509 171,31.5C 170.308,30.5632 170.475,29.8966 171.5,29.5C 173.757,29.0383 175.757,28.0383 177.5,26.5C 185.412,17.6547 193.078,8.65474 200.5,-0.5 Z M 160.5,58.5 C 161.738,60.2143 162.405,62.2143 162.5,64.5C 160.345,64.628 158.345,64.128 156.5,63C 158.041,61.6288 159.375,60.1288 160.5,58.5 Z"/></g>
<g><path style="opacity:1" fill="#07039a" d="M 149.5,20.5 C 147.092,24.3133 144.925,28.3133 143,32.5C 142.264,29.408 142.431,26.408 143.5,23.5C 145.216,21.9752 147.216,20.9752 149.5,20.5 Z"/></g>
<g><path style="opacity:1" fill="#f9c836" d="M 198.5,11.5 C 199.833,14.1667 201.167,16.8333 202.5,19.5C 198.229,21.9731 193.896,24.4731 189.5,27C 187.926,27.6987 186.593,27.3654 185.5,26C 189.699,20.972 194.032,16.1387 198.5,11.5 Z"/></g>
<g><path style="opacity:1" fill="#c89566" d="M 202.5,19.5 C 201.167,16.8333 199.833,14.1667 198.5,11.5C 198.415,10.0047 199.081,9.00475 200.5,8.5C 202.748,11.328 204.748,14.328 206.5,17.5C 205.423,18.7051 204.09,19.3718 202.5,19.5 Z"/></g>
<g><path style="opacity:1" fill="#cc9865" d="M 273.5,49.5 C 274.511,53.1122 274.678,56.7789 274,60.5C 263.139,67.8712 258.639,77.8712 260.5,90.5C 262.134,93.2376 261.467,95.2376 258.5,96.5C 255.305,86.3075 256.472,76.6409 262,67.5C 264.9,64.6003 267.733,61.7669 270.5,59C 268.914,49.7507 263.914,43.084 255.5,39C 245.629,35.8486 235.629,34.6819 225.5,35.5C 226.15,33.5648 226.483,31.5648 226.5,29.5C 239.914,29.0823 252.58,31.9156 264.5,38C 268.478,41.136 271.478,44.9694 273.5,49.5 Z"/></g>
<g><path style="opacity:1" fill="#cb9864" d="M 137.5,50.5 C 136.542,51.9616 135.376,53.2949 134,54.5C 133.624,47.4823 133.124,40.4823 132.5,33.5C 126.681,34.704 121.015,36.3707 115.5,38.5C 115.263,37.209 115.596,36.209 116.5,35.5C 122.693,33.3681 129.027,31.7015 135.5,30.5C 136.005,37.324 136.671,43.9906 137.5,50.5 Z"/></g>
<g><path style="opacity:1" fill="#c49267" d="M 163.5,46.5 C 158.859,42.1948 154.193,37.8614 149.5,33.5C 150.254,31.5541 151.588,30.7207 153.5,31C 157.833,35.3333 162.167,39.6667 166.5,44C 165.627,45.045 164.627,45.8783 163.5,46.5 Z"/></g>
<g><path style="opacity:1" fill="#fccb34" d="M 137.5,50.5 C 141.532,44.81 145.532,39.1434 149.5,33.5C 154.193,37.8614 158.859,42.1948 163.5,46.5C 157.805,52.5263 152.139,58.5263 146.5,64.5C 145.636,65.6883 144.636,66.8549 143.5,68C 149.355,70.7583 155.355,73.2583 161.5,75.5C 166.56,83.7181 173.894,88.5515 183.5,90C 184.167,90.6667 184.833,91.3333 185.5,92C 185.5,94 185.5,96 185.5,98C 184.906,98.4643 184.239,98.631 183.5,98.5C 169.294,91.2302 154.961,84.2302 140.5,77.5C 139.207,76.3552 138.041,76.6885 137,78.5C 136.5,86.4931 136.334,94.4931 136.5,102.5C 133.214,103.207 129.881,103.54 126.5,103.5C 126.334,99.1539 126.501,94.8206 127,90.5C 129.937,85.0999 130.771,79.4332 129.5,73.5C 128.132,68.4333 125.966,63.7666 123,59.5C 122.594,53.1507 122.094,46.8174 121.5,40.5C 119.738,40.3573 118.071,40.6906 116.5,41.5C 115.614,40.675 115.281,39.675 115.5,38.5C 121.015,36.3707 126.681,34.704 132.5,33.5C 133.124,40.4823 133.624,47.4823 134,54.5C 135.376,53.2949 136.542,51.9616 137.5,50.5 Z"/></g>
<g><path style="opacity:1" fill="#cb9765" d="M 331.5,52.5 C 333.046,55.6317 335.046,58.2983 337.5,60.5C 336.15,63.106 334.65,63.106 333,60.5C 328.03,52.5387 322.697,44.872 317,37.5C 312.443,39.1951 307.943,41.0284 303.5,43C 302.748,43.6708 302.414,44.5041 302.5,45.5C 301.218,44.2918 301.218,42.9584 302.5,41.5C 308.247,39.362 313.914,37.0287 319.5,34.5C 324.006,40.1846 328.006,46.1846 331.5,52.5 Z"/></g>
<g><path style="opacity:1" fill="#c89666" d="M 203.5,37.5 C 206.431,39.2481 209.264,41.2481 212,43.5C 211.903,45.4585 211.07,47.1252 209.5,48.5C 209.489,46.9826 208.823,45.8159 207.5,45C 199.277,39.4237 190.277,37.9237 180.5,40.5C 182.493,38.8368 184.826,37.6701 187.5,37C 192.871,36.3239 198.204,36.4905 203.5,37.5 Z"/></g>
<g><path style="opacity:1" fill="#353098" d="M 220.5,22.5 C 238.061,20.6455 254.394,24.1455 269.5,33C 275.635,37.7803 279.302,43.947 280.5,51.5C 279.811,52.7736 278.977,52.7736 278,51.5C 277.667,49.8333 277.333,48.1667 277,46.5C 275.961,47.7101 274.794,48.7101 273.5,49.5C 271.478,44.9694 268.478,41.136 264.5,38C 252.58,31.9156 239.914,29.0823 226.5,29.5C 226.483,31.5648 226.15,33.5648 225.5,35.5C 224.615,41.4685 223.948,47.4685 223.5,53.5C 229.002,53.6271 230.668,56.2938 228.5,61.5C 227.153,62.1712 225.986,62.1712 225,61.5C 223.615,62.5505 222.615,63.8839 222,65.5C 220.513,64.7471 220.346,63.9138 221.5,63C 219.92,60.7049 217.92,59.3716 215.5,59C 217.657,60.0847 217.824,61.2513 216,62.5C 212.906,58.4735 211.739,58.8069 212.5,63.5C 210.871,62.3747 209.371,61.0414 208,59.5C 206.624,60.7051 205.458,62.0384 204.5,63.5C 203.29,63.9321 202.29,64.5987 201.5,65.5C 198.904,66.2653 196.237,66.5987 193.5,66.5C 198.462,60.2026 203.795,54.2026 209.5,48.5C 211.07,47.1252 211.903,45.4585 212,43.5C 209.264,41.2481 206.431,39.2481 203.5,37.5C 207.188,37.542 210.854,37.542 214.5,37.5C 215.794,38.2899 216.961,39.2899 218,40.5C 218.799,34.4716 219.632,28.4716 220.5,22.5 Z"/></g>
<g><path style="opacity:1" fill="#fccb33" d="M 258.5,96.5 C 255.057,100.222 250.723,102.389 245.5,103C 238.144,103.636 230.811,103.469 223.5,102.5C 223.5,99.8333 223.5,97.1667 223.5,94.5C 225.524,83.6844 227.19,72.6844 228.5,61.5C 230.668,56.2938 229.002,53.6271 223.5,53.5C 223.948,47.4685 224.615,41.4685 225.5,35.5C 235.629,34.6819 245.629,35.8486 255.5,39C 263.914,43.084 268.914,49.7507 270.5,59C 267.733,61.7669 264.9,64.6003 262,67.5C 256.472,76.6409 255.305,86.3075 258.5,96.5 Z M 242.5,75.5 C 244.89,75.6848 245.89,77.0182 245.5,79.5C 245.563,81.4809 244.896,83.1476 243.5,84.5C 242.516,81.5719 242.183,78.5719 242.5,75.5 Z"/></g>
<g><path style="opacity:1" fill="#0a0268" d="M 297.5,37.5 C 297.687,42.8446 298.02,48.1779 298.5,53.5C 300.827,53.3354 302.993,52.6687 305,51.5C 309.692,57.3586 314.192,63.3586 318.5,69.5C 318.192,70.3081 317.692,70.9747 317,71.5C 312.901,66.8918 308.401,62.8918 303.5,59.5C 302.365,57.7868 300.698,57.1201 298.5,57.5C 296.833,58.8333 295.167,58.8333 293.5,57.5C 293.262,52.142 293.096,46.8086 293,41.5C 294.371,39.9586 295.871,38.6253 297.5,37.5 Z"/></g>
<g><path style="opacity:1" fill="#fccb33" d="M 337.5,60.5 C 343.14,55.1946 348.807,49.8612 354.5,44.5C 358.654,50.1303 362.321,56.1303 365.5,62.5C 359.211,67.3178 352.544,71.6511 345.5,75.5C 343.554,76.2544 342.721,77.5878 343,79.5C 354,89.1667 365,98.8333 376,108.5C 376.115,113.09 375.282,117.423 373.5,121.5C 361.785,109.119 349.785,97.1186 337.5,85.5C 336.211,84.4991 334.878,84.6658 333.5,86C 328.933,91.0043 324.266,95.8376 319.5,100.5C 317.281,98.4245 315.281,96.0912 313.5,93.5C 314.602,92.8243 315.602,92.1577 316.5,91.5C 319.617,92.0727 321.617,90.906 322.5,88C 321.897,84.8194 321.231,81.6528 320.5,78.5C 322.311,76.1882 324.311,74.0216 326.5,72C 321.04,63.5863 315.207,55.4197 309,47.5C 307.204,46.233 305.371,46.233 303.5,47.5C 302.702,47.0431 302.369,46.3764 302.5,45.5C 302.414,44.5041 302.748,43.6708 303.5,43C 307.943,41.0284 312.443,39.1951 317,37.5C 322.697,44.872 328.03,52.5387 333,60.5C 334.65,63.106 336.15,63.106 337.5,60.5 Z"/></g>
<g><path style="opacity:1" fill="#ca9665" d="M 365.5,62.5 C 362.321,56.1303 358.654,50.1303 354.5,44.5C 355.002,42.9153 356.002,42.4153 357.5,43C 361.364,48.7001 365.031,54.5334 368.5,60.5C 367.995,61.9185 366.995,62.5852 365.5,62.5 Z"/></g>
<g><path style="opacity:1" fill="#faca35" d="M 209.5,48.5 C 203.795,54.2026 198.462,60.2026 193.5,66.5C 190.374,67.9605 190.207,68.9605 193,69.5C 196.429,69.2019 199.263,67.8685 201.5,65.5C 202.29,64.5987 203.29,63.9321 204.5,63.5C 208.127,65.7935 211.461,68.4602 214.5,71.5C 213.284,73.4509 211.618,74.9509 209.5,76C 201.328,80.2233 192.661,81.5567 183.5,80C 176,77.8333 171.167,73 169,65.5C 166.917,54.3389 170.75,46.0056 180.5,40.5C 190.277,37.9237 199.277,39.4237 207.5,45C 208.823,45.8159 209.489,46.9826 209.5,48.5 Z M 187.5,51.5 C 188.978,51.238 190.311,51.5713 191.5,52.5C 189.144,55.0217 186.977,57.6884 185,60.5C 183.779,56.7179 184.613,53.7179 187.5,51.5 Z"/></g>
<g><path style="opacity:1" fill="#362f95" d="M 184.5,66.5 C 180.457,61.8365 179.457,56.5032 181.5,50.5C 185.127,45.9543 189.794,44.4543 195.5,46C 197.303,46.6368 198.636,47.8035 199.5,49.5C 194.821,55.5088 189.821,61.1754 184.5,66.5 Z M 187.5,51.5 C 184.613,53.7179 183.779,56.7179 185,60.5C 186.977,57.6884 189.144,55.0217 191.5,52.5C 190.311,51.5713 188.978,51.238 187.5,51.5 Z"/></g>
<g><path style="opacity:1" fill="#383298" d="M 336.5,47.5 C 333.866,48.1334 332.2,49.8001 331.5,52.5C 328.006,46.1846 324.006,40.1846 319.5,34.5C 313.914,37.0287 308.247,39.362 302.5,41.5C 301.218,42.9584 301.218,44.2918 302.5,45.5C 302.369,46.3764 302.702,47.0431 303.5,47.5C 305.371,46.233 307.204,46.233 309,47.5C 315.207,55.4197 321.04,63.5863 326.5,72C 324.311,74.0216 322.311,76.1882 320.5,78.5C 321.231,81.6528 321.897,84.8194 322.5,88C 321.617,90.906 319.617,92.0727 316.5,91.5C 315.516,88.9296 314.349,88.9296 313,91.5C 312.888,88.5529 311.388,87.2196 308.5,87.5C 308.842,86.6618 309.508,86.3284 310.5,86.5C 312.312,86.2287 313.978,85.562 315.5,84.5C 310.826,70.6585 301.159,63.9918 286.5,64.5C 272.945,66.7241 266.278,74.7241 266.5,88.5C 265.686,86.369 265.186,84.0356 265,81.5C 263.46,85.5736 262.127,85.9069 261,82.5C 260.503,85.146 260.336,87.8127 260.5,90.5C 258.639,77.8712 263.139,67.8712 274,60.5C 274.678,56.7789 274.511,53.1122 273.5,49.5C 274.794,48.7101 275.961,47.7101 277,46.5C 277.333,48.1667 277.667,49.8333 278,51.5C 278.977,52.7736 279.811,52.7736 280.5,51.5C 281.461,53.2646 281.795,55.2646 281.5,57.5C 285.5,57.5 289.5,57.5 293.5,57.5C 295.167,58.8333 296.833,58.8333 298.5,57.5C 299.848,58.6006 301.348,59.6006 303,60.5C 303.399,60.2716 303.565,59.9382 303.5,59.5C 308.401,62.8918 312.901,66.8918 317,71.5C 317.692,70.9747 318.192,70.3081 318.5,69.5C 314.192,63.3586 309.692,57.3586 305,51.5C 302.993,52.6687 300.827,53.3354 298.5,53.5C 298.02,48.1779 297.687,42.8446 297.5,37.5C 305.989,33.9986 314.656,30.6652 323.5,27.5C 327.859,34.1843 332.193,40.851 336.5,47.5 Z M 298.5,57.5 C 300.698,57.1201 302.365,57.7868 303.5,59.5C 303.565,59.9382 303.399,60.2716 303,60.5C 301.348,59.6006 299.848,58.6006 298.5,57.5 Z M 286.5,77.5 C 294.552,79.3281 294.386,80.9948 286,82.5C 285.167,82.1667 284.333,81.8333 283.5,81.5C 284.524,80.1482 285.524,78.8149 286.5,77.5 Z"/></g>
<g><path style="opacity:1" fill="#c39168" d="M 181.5,50.5 C 179.457,56.5032 180.457,61.8365 184.5,66.5C 183.828,67.2674 182.995,67.9341 182,68.5C 177.793,64.7323 176.46,60.0657 178,54.5C 178.66,52.6763 179.827,51.343 181.5,50.5 Z"/></g>
<g><path style="opacity:1" fill="#353099" d="M 109.5,54.5 C 116.164,57.938 118.164,55.938 115.5,48.5C 113.833,48.5 112.167,48.5 110.5,48.5C 109.646,42.8791 109.313,37.2124 109.5,31.5C 112.55,29.8993 115.884,28.8993 119.5,28.5C 120.397,29.5981 121.23,29.5981 122,28.5C 124,29.8333 124,31.1667 122,32.5C 118.462,28.7779 116.629,29.7779 116.5,35.5C 115.596,36.209 115.263,37.209 115.5,38.5C 115.281,39.675 115.614,40.675 116.5,41.5C 118.071,40.6906 119.738,40.3573 121.5,40.5C 122.094,46.8174 122.594,53.1507 123,59.5C 125.966,63.7666 128.132,68.4333 129.5,73.5C 128.977,76.5664 127.977,79.5664 126.5,82.5C 126.833,83.1667 127.167,83.8333 127.5,84.5C 126.24,85.3816 125.074,86.3816 124,87.5C 123.536,86.9056 123.369,86.2389 123.5,85.5C 126.873,70.5698 121.04,61.9031 106,59.5C 101.212,59.9222 97.0458,61.5889 93.5,64.5C 90.9438,65.5434 88.7772,67.2101 87,69.5C 84.8703,72.7667 83.037,76.1 81.5,79.5C 81.5654,79.0618 81.3988,78.7284 81,78.5C 80.7398,80.6175 79.7398,82.2842 78,83.5C 77.7167,80.2577 76.8834,79.9244 75.5,82.5C 76.2242,78.955 78.2242,75.7884 81.5,73C 80.7471,71.513 79.9138,71.3463 79,72.5C 78.5172,71.552 78.3505,70.552 78.5,69.5C 78.5,69.1667 78.5,68.8333 78.5,68.5C 87.065,54.347 84.065,43.1804 69.5,35C 51.6279,30.2582 34.9612,32.7582 19.5,42.5C 17.2433,42.9617 15.2433,43.9617 13.5,45.5C 16.7621,51.034 20.2621,56.3673 24,61.5C 26.1394,60.7636 28.1394,59.7636 30,58.5C 39,78.5 48,98.5 57,118.5C 60.7795,119.409 64.2795,118.743 67.5,116.5C 69.1033,116.688 70.4366,116.188 71.5,115C 68.1204,104.692 65.4537,94.192 63.5,83.5C 65.3325,82.7515 66.9991,81.7515 68.5,80.5C 69.2674,81.172 69.9341,82.0053 70.5,83C 67.9296,84.3493 67.9296,85.516 70.5,86.5C 71.8386,91.8543 73.1719,97.1877 74.5,102.5C 74.3284,103.492 74.6618,104.158 75.5,104.5C 76.4916,109.148 77.4916,113.815 78.5,118.5C 78.3601,120.03 77.6935,121.03 76.5,121.5C 69.0974,123.142 61.9307,125.475 55,128.5C 45.233,109.205 36.233,89.5388 28,69.5C 25.398,69.1012 22.898,69.1012 20.5,69.5C 15.1414,60.7694 9.80804,52.1028 4.5,43.5C 24.7773,27.5982 47.444,22.7649 72.5,29C 85.0216,35.1961 91.0216,45.3628 90.5,59.5C 96.2641,55.8085 102.597,54.1419 109.5,54.5 Z M 60.5,59.5 C 64.4198,60.8896 65.4198,63.5563 63.5,67.5C 61.7134,65.1416 60.7134,62.475 60.5,59.5 Z"/></g>
<g><path style="opacity:1" fill="#fdcc33" d="M 78.5,68.5 C 78.5,68.8333 78.5,69.1667 78.5,69.5C 75.1951,73.1408 71.8617,76.8075 68.5,80.5C 66.9991,81.7515 65.3325,82.7515 63.5,83.5C 62.0384,84.4577 60.7051,85.6244 59.5,87C 62.2425,96.8023 64.9091,106.636 67.5,116.5C 64.2795,118.743 60.7795,119.409 57,118.5C 48,98.5 39,78.5 30,58.5C 28.1394,59.7636 26.1394,60.7636 24,61.5C 20.2621,56.3673 16.7621,51.034 13.5,45.5C 15.2433,43.9617 17.2433,42.9617 19.5,42.5C 26.8189,39.3966 34.4856,37.2299 42.5,36C 52.8388,34.2421 62.5055,35.9088 71.5,41C 80.4766,48.4366 82.8099,57.6033 78.5,68.5 Z M 60.5,59.5 C 60.7134,62.475 61.7134,65.1416 63.5,67.5C 65.4198,63.5563 64.4198,60.8896 60.5,59.5 Z"/></g>
<g><path style="opacity:1" fill="#ca9665" d="M 53.5,53.5 C 55.6629,60.8148 57.8295,68.1482 60,75.5C 60.3826,76.056 60.8826,76.3893 61.5,76.5C 60.8549,77.8118 59.8549,78.8118 58.5,79.5C 55.6686,72.1715 53.3353,64.6715 51.5,57C 51.3866,55.3009 52.0532,54.1342 53.5,53.5 Z"/></g>
<g><path style="opacity:1" fill="#362f95" d="M 61.5,76.5 C 60.8826,76.3893 60.3826,76.056 60,75.5C 57.8295,68.1482 55.6629,60.8148 53.5,53.5C 66.2353,48.4554 72.0686,52.7887 71,66.5C 68.3039,70.3607 65.1373,73.694 61.5,76.5 Z M 60.5,59.5 C 60.7134,62.475 61.7134,65.1416 63.5,67.5C 65.4198,63.5563 64.4198,60.8896 60.5,59.5 Z"/></g>
<g><path style="opacity:1" fill="#0a016a" d="M 109.5,31.5 C 109.313,37.2124 109.646,42.8791 110.5,48.5C 112.167,48.5 113.833,48.5 115.5,48.5C 118.164,55.938 116.164,57.938 109.5,54.5C 109.5,53.5 109.5,52.5 109.5,51.5C 107.5,51.8333 105.5,52.1667 103.5,52.5C 103.17,46.1318 103.504,39.7985 104.5,33.5C 106.075,32.5435 107.742,31.8769 109.5,31.5 Z"/></g>
<g><path style="opacity:1" fill="#c99666" d="M 78.5,68.5 C 82.8099,57.6033 80.4766,48.4366 71.5,41C 62.5055,35.9088 52.8388,34.2421 42.5,36C 34.4856,37.2299 26.8189,39.3966 19.5,42.5C 34.9612,32.7582 51.6279,30.2582 69.5,35C 84.065,43.1804 87.065,54.347 78.5,68.5 Z"/></g>
<g><path style="opacity:1" fill="#c99666" d="M 123.5,85.5 C 122.857,87.0764 121.857,88.4097 120.5,89.5C 123.365,68.3656 114.365,60.0322 93.5,64.5C 97.0458,61.5889 101.212,59.9222 106,59.5C 121.04,61.9031 126.873,70.5698 123.5,85.5 Z"/></g>
<g><path style="opacity:1" fill="#c99666" d="M 212.5,63.5 C 214.197,65.3386 215.863,67.172 217.5,69C 216.87,70.3102 215.87,71.1435 214.5,71.5C 211.461,68.4602 208.127,65.7935 204.5,63.5C 205.458,62.0384 206.624,60.7051 208,59.5C 209.371,61.0414 210.871,62.3747 212.5,63.5 Z"/></g>
<g><path style="opacity:1" fill="#c89566" d="M 146.5,64.5 C 152.114,67.7177 158.114,70.3844 164.5,72.5C 169.908,81.5427 177.908,86.5427 188.5,87.5C 188.826,91.8839 188.492,96.2172 187.5,100.5C 185.974,100.006 184.641,99.339 183.5,98.5C 184.239,98.631 184.906,98.4643 185.5,98C 185.5,96 185.5,94 185.5,92C 184.833,91.3333 184.167,90.6667 183.5,90C 173.894,88.5515 166.56,83.7181 161.5,75.5C 155.355,73.2583 149.355,70.7583 143.5,68C 144.636,66.8549 145.636,65.6883 146.5,64.5 Z"/></g>
<g><path style="opacity:1" fill="#fbcb34" d="M 286.5,64.5 C 297.229,66.049 305.062,71.7157 310,81.5C 310.494,83.1341 310.66,84.8008 310.5,86.5C 309.508,86.3284 308.842,86.6618 308.5,87.5C 301.453,88.96 294.453,90.6266 287.5,92.5C 286.234,93.0899 284.901,93.5899 283.5,94C 286.447,96.1642 289.781,96.9975 293.5,96.5C 294.833,96.5 296.167,96.5 297.5,96.5C 298.75,96.5774 299.583,97.244 300,98.5C 301.15,102.112 301.983,105.778 302.5,109.5C 290.243,110.693 279.743,107.026 271,98.5C 268.682,95.531 267.182,92.1977 266.5,88.5C 266.278,74.7241 272.945,66.7241 286.5,64.5 Z M 286.5,77.5 C 285.524,78.8149 284.524,80.1482 283.5,81.5C 284.333,81.8333 285.167,82.1667 286,82.5C 294.386,80.9948 294.552,79.3281 286.5,77.5 Z"/></g>
<g><path style="opacity:1" fill="#ca9665" d="M 286.5,64.5 C 301.159,63.9918 310.826,70.6585 315.5,84.5C 313.978,85.562 312.312,86.2287 310.5,86.5C 310.66,84.8008 310.494,83.1341 310,81.5C 305.062,71.7157 297.229,66.049 286.5,64.5 Z"/></g>
<g><path style="opacity:1" fill="#d49c61" d="M 201.5,65.5 C 199.263,67.8685 196.429,69.2019 193,69.5C 190.207,68.9605 190.374,67.9605 193.5,66.5C 196.237,66.5987 198.904,66.2653 201.5,65.5 Z"/></g>
<g><path style="opacity:1" fill="#c99566" d="M 238.5,65.5 C 237.869,74.0461 236.869,82.5461 235.5,91C 235.836,92.0299 236.503,92.5299 237.5,92.5C 235.799,94.4233 233.799,94.7567 231.5,93.5C 232.91,85.2204 234.077,76.887 235,68.5C 235.72,66.9443 236.887,65.9443 238.5,65.5 Z"/></g>
<g><path style="opacity:1" fill="#090167" d="M 4.5,43.5 C 9.80804,52.1028 15.1414,60.7694 20.5,69.5C 22.898,69.1012 25.398,69.1012 28,69.5C 36.233,89.5388 45.233,109.205 55,128.5C 61.9307,125.475 69.0974,123.142 76.5,121.5C 75.2511,123.136 73.5844,124.303 71.5,125C 63.7314,128.263 55.7314,130.263 47.5,131C 38.8793,112.309 30.546,93.4753 22.5,74.5C 20.0367,74.5866 17.5367,74.5866 15,74.5C 10.3093,65.7672 5.14263,57.4338 -0.5,49.5C -0.5,48.8333 -0.5,48.1667 -0.5,47.5C 1.16667,46.1667 2.83333,44.8333 4.5,43.5 Z"/></g>
<g><path style="opacity:1" fill="#f9c936" d="M 120.5,89.5 C 118.322,95.1768 114.322,99.0101 108.5,101C 90.5273,105.199 81.5273,98.0328 81.5,79.5C 83.037,76.1 84.8703,72.7667 87,69.5C 88.7772,67.2101 90.9438,65.5434 93.5,64.5C 114.365,60.0322 123.365,68.3656 120.5,89.5 Z"/></g>
<g><path style="opacity:1" fill="#cb9765" d="M 95.5,69.5 C 93.7998,81.1691 98.7998,85.8358 110.5,83.5C 109.657,85.1733 108.324,86.34 106.5,87C 98.2405,88.8745 93.2405,85.7078 91.5,77.5C 91.7997,74.2335 93.1331,71.5669 95.5,69.5 Z"/></g>
<g><path style="opacity:1" fill="#363198" d="M 110.5,83.5 C 98.7998,85.8358 93.7998,81.1691 95.5,69.5C 97.34,67.832 99.34,66.332 101.5,65C 103.167,64.3333 104.833,64.3333 106.5,65C 101.33,67.2127 100.33,70.5461 103.5,75C 109.039,77.8131 112.872,76.3131 115,70.5C 116.619,76.0324 115.119,80.3657 110.5,83.5 Z"/></g>
<g><path style="opacity:1" fill="#c69367" d="M 285.5,73.5 C 280.081,76.9623 278.081,81.9623 279.5,88.5C 278.167,88.5 276.833,88.5 275.5,88.5C 274.184,80.1832 277.517,75.1832 285.5,73.5 Z"/></g>
<g><path style="opacity:1" fill="#0c0167" d="M 218.5,88.5 C 216.764,94.5888 215.764,100.922 215.5,107.5C 228.918,111.42 242.252,111.253 255.5,107C 258.5,105.167 261.5,103.333 264.5,101.5C 265.107,101.624 265.44,101.957 265.5,102.5C 256.415,111.314 245.415,115.647 232.5,115.5C 224.705,115.121 217.038,113.954 209.5,112C 208.422,111.326 207.755,110.326 207.5,109C 209.227,100.561 210.061,92.0614 210,83.5C 205.381,87.0599 200.214,89.3932 194.5,90.5C 194.281,89.325 194.614,88.325 195.5,87.5C 204.215,85.5575 212.048,81.8908 219,76.5C 218.983,80.4754 218.816,84.4754 218.5,88.5 Z"/></g>
<g><path style="opacity:1" fill="#c99566" d="M 345.5,75.5 C 356.669,86.8345 368.336,97.6678 380.5,108C 379.376,113.326 377.709,118.493 375.5,123.5C 374.478,123.145 373.811,122.478 373.5,121.5C 375.282,117.423 376.115,113.09 376,108.5C 365,98.8333 354,89.1667 343,79.5C 342.721,77.5878 343.554,76.2544 345.5,75.5 Z"/></g>
<g><path style="opacity:1" fill="#c39169" d="M 140.5,77.5 C 139.671,85.3228 139.171,93.3228 139,101.5C 138.329,102.252 137.496,102.586 136.5,102.5C 136.334,94.4931 136.5,86.4931 137,78.5C 138.041,76.6885 139.207,76.3552 140.5,77.5 Z"/></g>
<g><path style="opacity:1" fill="#352f96" d="M 279.5,88.5 C 278.081,81.9623 280.081,76.9623 285.5,73.5C 293.859,71.342 299.192,74.342 301.5,82.5C 294.099,84.3012 286.765,86.3012 279.5,88.5 Z M 286.5,77.5 C 285.524,78.8149 284.524,80.1482 283.5,81.5C 284.333,81.8333 285.167,82.1667 286,82.5C 294.386,80.9948 294.552,79.3281 286.5,77.5 Z"/></g>
<g><path style="opacity:1" fill="#0b0167" d="M 112.5,106.5 C 99.6792,116.387 87.3459,115.721 75.5,104.5C 75.6716,103.508 75.3382,102.842 74.5,102.5C 73.1719,97.1877 71.8386,91.8543 70.5,86.5C 71.8853,85.3862 73.3853,84.3862 75,83.5C 78.6185,105.562 91.1185,113.229 112.5,106.5 Z"/></g>
<g><path style="opacity:1" fill="#322d95" d="M 238.5,65.5 C 250.211,65.3726 255.378,71.0393 254,82.5C 252.878,84.6238 251.378,86.4571 249.5,88C 245.51,89.6066 241.51,91.1066 237.5,92.5C 236.503,92.5299 235.836,92.0299 235.5,91C 236.869,82.5461 237.869,74.0461 238.5,65.5 Z M 242.5,75.5 C 242.183,78.5719 242.516,81.5719 243.5,84.5C 244.896,83.1476 245.563,81.4809 245.5,79.5C 245.89,77.0182 244.89,75.6848 242.5,75.5 Z"/></g>
<g><path style="opacity:1" fill="#c89566" d="M 63.5,83.5 C 65.4537,94.192 68.1204,104.692 71.5,115C 70.4366,116.188 69.1033,116.688 67.5,116.5C 64.9091,106.636 62.2425,96.8023 59.5,87C 60.7051,85.6244 62.0384,84.4577 63.5,83.5 Z"/></g>
<g><path style="opacity:1" fill="#c79565" d="M 337.5,85.5 C 333.79,89.2079 330.457,93.2079 327.5,97.5C 325.203,99.2941 323.037,101.294 321,103.5C 320.487,102.473 319.987,101.473 319.5,100.5C 324.266,95.8376 328.933,91.0043 333.5,86C 334.878,84.6658 336.211,84.4991 337.5,85.5 Z"/></g>
<g><path style="opacity:1" fill="#080066" d="M 193.5,111.5 C 191.074,113.218 188.407,113.718 185.5,113C 172.267,106.217 158.934,99.7166 145.5,93.5C 145.337,91.1432 145.503,88.8098 146,86.5C 161.984,94.5499 177.817,102.883 193.5,111.5 Z"/></g>
<g><path style="opacity:1" fill="#080166" d="M 379.5,135.5 C 379.567,136.959 379.234,138.292 378.5,139.5C 377.167,139.5 375.833,139.5 374.5,139.5C 361.139,125.807 347.806,112.14 334.5,98.5C 335.836,96.9897 337.003,95.3231 338,93.5C 351.339,108.006 365.173,122.006 379.5,135.5 Z"/></g>
<g><path style="opacity:1" fill="#353098" d="M 386.5,103.5 C 386.5,105.833 386.5,108.167 386.5,110.5C 384.04,118.801 381.707,127.135 379.5,135.5C 365.173,122.006 351.339,108.006 338,93.5C 337.003,95.3231 335.836,96.9897 334.5,98.5C 332.794,100.158 330.961,100.825 329,100.5C 327.844,99.4982 327.344,98.4982 327.5,97.5C 330.457,93.2079 333.79,89.2079 337.5,85.5C 349.785,97.1186 361.785,109.119 373.5,121.5C 373.811,122.478 374.478,123.145 375.5,123.5C 377.709,118.493 379.376,113.326 380.5,108C 368.336,97.6678 356.669,86.8345 345.5,75.5C 352.544,71.6511 359.211,67.3178 365.5,62.5C 366.995,62.5852 367.995,61.9185 368.5,60.5C 365.031,54.5334 361.364,48.7001 357.5,43C 356.002,42.4153 355.002,42.9153 354.5,44.5C 348.807,49.8612 343.14,55.1946 337.5,60.5C 335.046,58.2983 333.046,55.6317 331.5,52.5C 332.2,49.8001 333.866,48.1334 336.5,47.5C 341.492,42.6761 346.659,38.0094 352,33.5C 354.715,32.2624 357.382,32.2624 360,33.5C 366.219,43.4381 372.053,53.6048 377.5,64C 370.557,68.8119 363.224,73.1452 355.5,77C 365.725,86.0661 376.059,94.8995 386.5,103.5 Z"/></g>
<g><path style="opacity:1" fill="#110269" d="M 142.5,108.5 C 141.653,109.966 140.32,110.8 138.5,111C 130.83,112.215 123.163,113.381 115.5,114.5C 114.841,111.545 114.508,108.545 114.5,105.5C 116.437,104.069 118.27,102.402 120,100.5C 120.61,103.827 121.11,107.161 121.5,110.5C 128.493,109.767 135.493,109.101 142.5,108.5 Z"/></g>
<g><path style="opacity:1" fill="#353098" d="M 266.5,88.5 C 267.182,92.1977 268.682,95.531 271,98.5C 279.743,107.026 290.243,110.693 302.5,109.5C 303.708,108.766 305.041,108.433 306.5,108.5C 305.816,104.429 304.816,100.429 303.5,96.5C 301.364,95.2072 299.364,95.2072 297.5,96.5C 296.167,96.5 294.833,96.5 293.5,96.5C 291.19,95.675 289.19,94.3417 287.5,92.5C 294.453,90.6266 301.453,88.96 308.5,87.5C 311.388,87.2196 312.888,88.5529 313,91.5C 314.349,88.9296 315.516,88.9296 316.5,91.5C 315.602,92.1577 314.602,92.8243 313.5,93.5C 315.281,96.0912 317.281,98.4245 319.5,100.5C 319.987,101.473 320.487,102.473 321,103.5C 323.037,101.294 325.203,99.2941 327.5,97.5C 327.344,98.4982 327.844,99.4982 329,100.5C 330.961,100.825 332.794,100.158 334.5,98.5C 331.975,102.896 328.975,106.896 325.5,110.5C 324.206,111.29 323.039,112.29 322,113.5C 319,109.833 316,106.167 313,102.5C 313.633,106.067 314.133,109.733 314.5,113.5C 299.867,117.412 285.867,115.912 272.5,109C 270.297,106.628 267.963,104.461 265.5,102.5C 265.44,101.957 265.107,101.624 264.5,101.5C 261.5,103.333 258.5,105.167 255.5,107C 242.252,111.253 228.918,111.42 215.5,107.5C 215.764,100.922 216.764,94.5888 218.5,88.5C 218.616,90.575 219.116,92.575 220,94.5C 221.554,92.0728 222.721,92.0728 223.5,94.5C 223.5,97.1667 223.5,99.8333 223.5,102.5C 230.811,103.469 238.144,103.636 245.5,103C 250.723,102.389 255.057,100.222 258.5,96.5C 261.467,95.2376 262.134,93.2376 260.5,90.5C 260.336,87.8127 260.503,85.146 261,82.5C 262.127,85.9069 263.46,85.5736 265,81.5C 265.186,84.0356 265.686,86.369 266.5,88.5 Z"/></g>
<g><path style="opacity:1" fill="#ca9665" d="M 297.5,96.5 C 299.364,95.2072 301.364,95.2072 303.5,96.5C 304.816,100.429 305.816,104.429 306.5,108.5C 305.041,108.433 303.708,108.766 302.5,109.5C 301.983,105.778 301.15,102.112 300,98.5C 299.583,97.244 298.75,96.5774 297.5,96.5 Z"/></g>
<g><path style="opacity:1" fill="#c89565" d="M 287.5,92.5 C 289.19,94.3417 291.19,95.675 293.5,96.5C 289.781,96.9975 286.447,96.1642 283.5,94C 284.901,93.5899 286.234,93.0899 287.5,92.5 Z"/></g>
<g><path style="opacity:1" fill="#0e0369" d="M 265.5,102.5 C 267.963,104.461 270.297,106.628 272.5,109C 285.867,115.912 299.867,117.412 314.5,113.5C 314.133,109.733 313.633,106.067 313,102.5C 316,106.167 319,109.833 322,113.5C 323.039,112.29 324.206,111.29 325.5,110.5C 324.272,114.22 322.106,117.22 319,119.5C 317.291,118.43 315.791,117.097 314.5,115.5C 313.528,117.636 311.861,118.803 309.5,119C 293.028,122.179 278.861,118.012 267,106.5C 266.209,105.255 265.709,103.922 265.5,102.5 Z"/></g>
</svg>
